<?xml version="1.0" encoding="UTF-8" standalone="no"?>
<!-- Created with Inkscape (http://www.inkscape.org/) -->

<svg
   width="30"
   height="64"
   id="svg3332"
   sodipodi:version="0.32"
   inkscape:version="1.2.2 (b0a8486541, 2022-12-01)"
   version="1.0"
   sodipodi:docname="bg1.svg"
   inkscape:output_extension="org.inkscape.output.svg.inkscape"
   xmlns:inkscape="http://www.inkscape.org/namespaces/inkscape"
   xmlns:sodipodi="http://sodipodi.sourceforge.net/DTD/sodipodi-0.dtd"
   xmlns="http://www.w3.org/2000/svg"
   xmlns:svg="http://www.w3.org/2000/svg"
   xmlns:rdf="http://www.w3.org/1999/02/22-rdf-syntax-ns#"
   xmlns:cc="http://creativecommons.org/ns#"
   xmlns:dc="http://purl.org/dc/elements/1.1/">
  <defs
     id="defs3334">
    <inkscape:perspective
       sodipodi:type="inkscape:persp3d"
       inkscape:vp_x="0 : 526.18109 : 1"
       inkscape:vp_y="0 : 1000 : 0"
       inkscape:vp_z="744.09448 : 526.18109 : 1"
       inkscape:persp3d-origin="372.04724 : 350.78739 : 1"
       id="perspective3340" />
  </defs>
  <sodipodi:namedview
     id="base"
     pagecolor="#ffffff"
     bordercolor="#666666"
     borderopacity="1.0"
     gridtolerance="10000"
     guidetolerance="10"
     objecttolerance="10"
     inkscape:pageopacity="0.0"
     inkscape:pageshadow="2"
     inkscape:zoom="3.137037"
     inkscape:cx="-37.615113"
     inkscape:cy="49.250296"
     inkscape:document-units="px"
     inkscape:current-layer="layer1"
     showgrid="false"
     inkscape:window-width="1920"
     inkscape:window-height="1008"
     inkscape:window-x="0"
     inkscape:window-y="0"
     inkscape:showpageshadow="2"
     inkscape:pagecheckerboard="0"
     inkscape:deskcolor="#d1d1d1"
     inkscape:window-maximized="1" />
  <metadata
     id="metadata3337">
    <rdf:RDF>
      <cc:Work
         rdf:about="">
        <dc:format>image/svg+xml</dc:format>
        <dc:type
           rdf:resource="http://purl.org/dc/dcmitype/StillImage" />
      </cc:Work>
    </rdf:RDF>
  </metadata>
  <g
     inkscape:label="Layer 1"
     inkscape:groupmode="layer"
     id="layer1"
     transform="translate(-429.54212,-552.81875)">
    <g
       id="g3327"
       transform="matrix(4.1736239,0,0,4.1736239,268.49547,472.12944)"
       style="fill:#000000;fill-opacity:1">
      <path
         id="text835"
         d="m 42.425682,25.249999 v 2.635914 h 0.09138 0.08435 V 27.5204 27.161915 l 0.02812,0.02109 0.154641,0.147611 c 0.256269,0.245574 0.457184,0.476656 0.602745,0.693245 0.145561,0.216579 0.237525,0.421301 0.275893,0.614168 0.03104,0.169718 0.02519,0.362725 -0.01757,0.579023 -0.04276,0.216285 -0.11891,0.428622 -0.228446,0.637013 -0.02021,0.03982 -0.03251,0.06735 -0.0369,0.08259 -0.0044,0.01522 -0.0062,0.03221 -0.0053,0.05096 0.004,0.04583 0.01889,0.0842 0.04481,0.115101 0.02592,0.03089 0.06019,0.05344 0.102801,0.06766 0.0432,0.01391 0.08508,0.01595 0.125645,0.0062 0.04056,-0.0098 0.07366,-0.03061 0.09929,-0.06238 0.03061,-0.03764 0.06956,-0.117013 0.116859,-0.238111 0.0473,-0.121113 0.08801,-0.24793 0.122131,-0.380451 0.04569,-0.183495 0.07205,-0.359516 0.07908,-0.528061 0.007,-0.168559 -0.0053,-0.325249 -0.0369,-0.470072 -0.01142,-0.05507 -0.029,-0.117157 -0.05272,-0.186271 -0.02372,-0.06912 -0.04833,-0.131216 -0.07381,-0.186271 l -0.04217,-0.08435 0.03514,-0.07029 c 0.09475,-0.230501 0.13897,-0.458361 0.132675,-0.68358 -0.0063,-0.225229 -0.06224,-0.456603 -0.16782,-0.694124 l -0.03515,-0.07732 0.02109,-0.04218 c 0.01786,-0.03969 0.03485,-0.08508 0.05096,-0.136189 0.01611,-0.05111 0.02958,-0.101779 0.04042,-0.152004 0.0067,-0.035 0.01084,-0.06693 0.0123,-0.09577 0.0015,-0.02885 0.002,-0.07659 0.0018,-0.143218 2.92e-4,-0.07469 -0.0021,-0.139707 -0.007,-0.195058 -0.005,-0.05536 -0.01435,-0.116862 -0.02812,-0.184514 -0.04921,-0.219076 -0.147613,-0.462752 -0.295223,-0.731026 -0.03705,-0.06385 -0.08069,-0.136484 -0.130917,-0.217903 C 43.439483,24.535957 43.373,24.428177 43.290262,24.29404 L 43.086418,23.977731 C 42.926066,23.724535 42.80745,23.496382 42.73057,23.293271 42.653689,23.090159 42.610636,22.89188 42.60141,22.698434 v -0.08435 h -0.09138 -0.08435 v 2.635915 z m 0.288194,-1.012191 c 0.181438,0.226101 0.329928,0.427601 0.445469,0.604503 0.11554,0.176896 0.20604,0.343252 0.271499,0.499066 0.05345,0.126375 0.0924,0.253191 0.116859,0.38045 0.02445,0.127253 0.03002,0.23474 0.01669,0.322461 v 0.02812 l -0.126524,-0.175728 c -0.03661,-0.04803 -0.07586,-0.101339 -0.117737,-0.159912 -0.04188,-0.05858 -0.07761,-0.108368 -0.107194,-0.149368 -0.183636,-0.254369 -0.320703,-0.47315 -0.411203,-0.656343 -0.0905,-0.183198 -0.150247,-0.365076 -0.179242,-0.545634 -0.0076,-0.05184 -0.01347,-0.109832 -0.01757,-0.173971 -0.0041,-0.06414 -0.0029,-0.09753 0.0035,-0.100164 8.79e-4,0.0044 0.01142,0.01845 0.03163,0.04217 0.02021,0.02372 0.04481,0.05184 0.07381,0.08435 z m 0.316309,1.841625 c 0.06824,0.07819 0.125059,0.146729 0.170456,0.205601 0.0454,0.05887 0.09167,0.123885 0.138825,0.195058 0.126377,0.189343 0.212776,0.369463 0.259198,0.540363 0.04642,0.17089 0.05374,0.335195 0.02197,0.492916 -0.0035,0.02152 -0.007,0.03997 -0.01054,0.05535 -0.0035,0.01537 -0.007,0.02504 -0.01054,0.02899 -0.0012,0.007 -0.01992,-0.01406 -0.05623,-0.06326 -0.01538,-0.0227 -0.04086,-0.05814 -0.07644,-0.106315 -0.03559,-0.04818 -0.07337,-0.09944 -0.113345,-0.153762 -0.164013,-0.217174 -0.285851,-0.38558 -0.365513,-0.505217 -0.07966,-0.119645 -0.145269,-0.23709 -0.196815,-0.352334 -0.06019,-0.124624 -0.106755,-0.249683 -0.139704,-0.375178 -0.03295,-0.125502 -0.04964,-0.241775 -0.05008,-0.34882 v -0.06326 l 0.161669,0.168699 c 0.04759,0.04774 0.0965,0.09811 0.146733,0.151126 0.05023,0.05301 0.09035,0.09635 0.120373,0.130038 z"
         style="font-size:7.0292px;font-family:Emmentaler;fill:#ffd966;fill-opacity:1" />
      <path
         id="rect841"
         d="m 42.443251,22.543793 h 0.08787 c 0.03894,0 0.07029,0.03135 0.07029,0.07029 v 7.437216 c 0,0.03894 -0.03135,0.07029 -0.07029,0.07029 h -0.08787 c -0.03894,0 -0.07029,-0.03135 -0.07029,-0.07029 v -7.437216 c 0,-0.03894 0.03135,-0.07029 0.07029,-0.07029 z"
         style="fill:#ffd966;fill-opacity:1" />
      <path
         id="text845"
         d="m 41.5467,29.446477 c -0.254074,0.03851 -0.483984,0.130186 -0.689731,0.275014 -0.205748,0.144829 -0.360095,0.322607 -0.463042,0.533333 -0.03837,0.07864 -0.06531,0.151565 -0.08084,0.218781 -0.01552,0.06722 -0.02138,0.1419 -0.01757,0.224053 -2.92e-4,0.04715 2.93e-4,0.08288 0.0018,0.107194 0.0015,0.02431 0.0056,0.0495 0.0123,0.07556 0.04759,0.173383 0.142192,0.309865 0.2838,0.409445 0.141606,0.09958 0.318798,0.155225 0.531576,0.166941 0.309279,0.0037 0.597472,-0.0845 0.86458,-0.26447 0.267104,-0.179975 0.44986,-0.410471 0.54827,-0.691488 0.01713,-0.05389 0.02855,-0.102508 0.03427,-0.145854 0.0057,-0.04335 0.0083,-0.09548 0.0079,-0.156398 2.9e-4,-0.04701 -2.96e-4,-0.08303 -0.0018,-0.108072 -0.0015,-0.02504 -0.0056,-0.05228 -0.0123,-0.08171 -0.01816,-0.06443 -0.0451,-0.12711 -0.08083,-0.188029 -0.03573,-0.06092 -0.07674,-0.113051 -0.12301,-0.156398 -0.113639,-0.09958 -0.258907,-0.167526 -0.435804,-0.203844 -0.05008,-0.01025 -0.113346,-0.01611 -0.189786,-0.01757 -0.07644,-0.0015 -0.139705,-2.91e-4 -0.189786,0.0035 z"
         style="font-size:7.0292px;font-family:Emmentaler;fill:#ffd966;fill-opacity:1" />
    </g>
  </g>
</svg>
